<?xml version="1.0" standalone="no"?>
<!DOCTYPE svg PUBLIC "-//W3C//DTD SVG 20010904//EN"
 "http://www.w3.org/TR/2001/REC-SVG-20010904/DTD/svg10.dtd">
<svg version="1.0" xmlns="http://www.w3.org/2000/svg"
 width="512.000000pt" height="512.000000pt" viewBox="0 0 512.000000 512.000000"
 preserveAspectRatio="xMidYMid meet">
<metadata>
Created by potrace 1.14, written by Peter Selinger 2001-2017
</metadata>
<g transform="translate(0.000000,512.000000) scale(0.100000,-0.100000)"
fill="#000000" stroke="none">
<path d="M982 5100 c-23 -10 -54 -32 -68 -47 -54 -57 -58 -79 -59 -331 -1
-127 -4 -234 -6 -237 -3 -2 -68 -5 -144 -6 -77 -1 -169 -8 -205 -15 -175 -36
-351 -174 -429 -336 -76 -157 -71 -21 -70 -1888 1 -1861 -4 -1738 70 -1887 82
-165 253 -299 430 -338 53 -11 397 -14 2059 -14 2208 -1 2052 -5 2197 65 133
64 241 175 307 316 56 120 54 45 55 1858 1 1867 6 1731 -70 1888 -79 165 -270
311 -439 338 -14 2 -36 6 -50 8 -14 3 -86 5 -160 5 l-135 1 0 243 0 242 -27
45 c-33 55 -71 85 -127 100 -61 16 -307 12 -351 -7 -45 -18 -87 -58 -112 -107
-19 -37 -20 -59 -21 -278 l-1 -238 -1066 0 -1066 0 0 238 c-1 266 -5 286 -78
350 -50 43 -91 52 -251 52 -117 0 -147 -4 -183 -20z"/>
</g>
</svg>
